<svg xmlns="http://www.w3.org/2000/svg" xmlns:xlink="http://www.w3.org/1999/xlink" viewBox="0 0 60 60"><path d="M7.104 14.032l15.586 1.984c0 0-0.019 0.5 0 0.953c0.029 0.756-0.26 1.534-0.809 2.1 l-4.74 4.742c2.361 3.3 16.5 17.4 19.8 19.8l16.813 1.141c0 0 0 0.4 0 1.1 c-0.002 0.479-0.176 0.953-0.549 1.327l-6.504 6.505c0 0-11.261 0.988-25.925-13.674C6.117 25.3 7.1 14 7.1 14" fill="#006700"/><path d="M7.104 13.032l6.504-6.505c0.896-0.895 2.334-0.678 3.1 0.35l5.563 7.8 c0.738 1 0.5 2.531-0.36 3.426l-4.74 4.742c2.361 3.3 5.3 6.9 9.1 10.699c3.842 3.8 7.4 6.7 10.7 9.1 l4.74-4.742c0.897-0.895 2.471-1.026 3.498-0.289l7.646 5.455c1.025 0.7 1.3 2.2 0.4 3.105l-6.504 6.5 c0 0-11.262 0.988-25.925-13.674C6.117 24.3 7.1 13 7.1 13" fill="#fff"/></svg>